<svg width="1090" height="712" viewBox="0 0 1090 712" fill="none" xmlns="http://www.w3.org/2000/svg">
<path d="M0 712V510H84.1549C93.0632 510 101.213 511.897 108.605 515.69C115.997 519.294 122.442 524.225 127.938 530.485C133.435 536.554 137.699 543.477 140.732 551.254C143.765 558.84 145.281 566.617 145.281 574.583C145.281 585.584 142.817 596.111 137.889 606.163C132.961 616.026 126.043 624.087 117.135 630.346C108.226 636.416 97.8016 639.451 85.8607 639.451H25.5876V712H0ZM25.5876 616.69H84.4392C91.4521 616.69 97.5173 614.793 102.635 611C107.942 607.207 112.017 602.085 114.86 595.637C117.893 589.188 119.409 582.17 119.409 574.583C119.409 566.617 117.703 559.504 114.291 553.245C110.88 546.796 106.426 541.77 100.929 538.166C95.4324 534.562 89.3672 532.761 82.7334 532.761H25.5876V616.69Z" fill="black"/>
<path d="M224.109 510H245.717L328.166 712H300.872L276.991 652.823H192.267L168.67 712H141.376L224.109 510ZM271.304 632.907L234.913 539.589L197.385 632.907H271.304Z" fill="black"/>
<path d="M481.514 532.761H411.859V712H386.271V532.761H316.616V510H481.514V532.761Z" fill="black"/>
<path d="M510.587 712V510H597.016C605.924 510 614.074 511.897 621.466 515.69C628.858 519.294 635.303 524.225 640.799 530.485C646.296 536.554 650.56 543.477 653.593 551.254C656.626 558.84 658.142 566.617 658.142 574.583C658.142 583.877 656.341 592.697 652.74 601.042C649.328 609.388 644.401 616.5 637.956 622.38C631.701 628.26 624.309 632.338 615.78 634.614L664.681 712H635.682L589.624 639.451H536.174V712H510.587ZM536.174 616.69H597.3C604.313 616.69 610.378 614.793 615.496 611C620.803 607.017 624.878 601.801 627.721 595.352C630.754 588.903 632.27 581.98 632.27 574.583C632.27 566.996 630.564 560.073 627.153 553.814C623.741 547.365 619.287 542.244 613.79 538.451C608.293 534.657 602.228 532.761 595.594 532.761H536.174V616.69Z" fill="black"/>
<path d="M758.851 510H780.458L862.908 712H835.614L811.732 652.823H727.009L703.411 712H676.118L758.851 510ZM806.046 632.907L769.655 539.589L732.126 632.907H806.046Z" fill="black"/>
<path d="M1064.41 712V557.797L997.884 676.437H982.248L915.435 557.797V712H889.848V510H916.857L989.924 641.158L1063.28 510H1090V712H1064.41Z" fill="black"/>
<path d="M725 192C725 298.039 639.039 384 533 384C426.961 384 341 298.039 341 192C341 85.9613 426.961 0 533 0C639.039 0 725 85.9613 725 192Z" fill="#27B635"/>
<path fill-rule="evenodd" clip-rule="evenodd" d="M630.866 121.475C642.712 136.747 649.425 156.779 649.425 182.634C649.425 209.602 642.522 229.987 630.32 245.101C618.172 260.149 601.348 269.255 582.791 274.79C551.584 284.098 513.62 283.736 480.954 283.424C475.271 283.37 469.748 283.317 464.449 283.317H457.425V77.2683H464.449C464.68 77.2683 464.91 77.2683 465.141 77.2683C502.79 77.2678 548.25 77.2673 584.343 89.9588C602.674 96.4046 619.074 106.273 630.866 121.475ZM471.474 91.3205C508.088 91.3696 548.111 92.1106 579.682 103.212C596.31 109.059 610.104 117.63 619.766 130.086C629.374 142.473 635.376 159.319 635.376 182.634C635.376 207.127 629.155 224.18 619.389 236.276C609.571 248.437 595.586 256.313 578.775 261.328C549.798 269.971 514.377 269.659 481.563 269.37C478.169 269.34 474.802 269.31 471.474 269.291V91.3205Z" fill="white"/>
<path fill-rule="evenodd" clip-rule="evenodd" d="M539.437 93.7434L553.485 93.5754L554.518 179.985L638.135 184.989L637.296 199.013L540.627 193.227L539.437 93.7434Z" fill="white"/>
<path fill-rule="evenodd" clip-rule="evenodd" d="M497.207 85.3996L511.238 84.6855L513.962 226.622L625.803 226.622L625.803 240.67L500.61 240.67L497.207 85.3996Z" fill="white"/>
<path fill-rule="evenodd" clip-rule="evenodd" d="M622.036 119.927L471.572 278.08L461.394 268.396L611.858 110.243L622.036 119.927Z" fill="white"/>
<path fill-rule="evenodd" clip-rule="evenodd" d="M457.423 309.074V262.245H471.471V309.074H457.423Z" fill="white"/>
</svg>
